<ttFont>
    <TTGlyph name=".notdef" xMin="102" yMin="0" xMax="922" yMax="1462">
      <contour>
        <pt x="102" y="0" on="1"/>
        <pt x="102" y="1462" on="1"/>
        <pt x="922" y="1462" on="1"/>
        <pt x="922" y="0" on="1"/>
      </contour>
      <contour>
        <pt x="201" y="98" on="1"/>
        <pt x="823" y="98" on="1"/>
        <pt x="823" y="1364" on="1"/>
        <pt x="201" y="1364" on="1"/>
      </contour>
    </TTGlyph>
    <TTGlyph name="glyph00004" xMin="80" yMin="-20" xMax="1157" yMax="1490">
      <contour>
        <pt x="837" y="1198" on="1"/>
        <pt x="998" y="1053" on="0"/>
        <pt x="1157" y="746" on="0"/>
        <pt x="1157" y="567" on="1"/>
        <pt x="1157" y="393" on="0"/>
        <pt x="1012" y="125" on="0"/>
        <pt x="743" y="-20" on="0"/>
        <pt x="566" y="-20" on="1"/>
        <pt x="338" y="-20" on="0"/>
        <pt x="80" y="208" on="0"/>
        <pt x="80" y="408" on="1"/>
        <pt x="80" y="616" on="0"/>
        <pt x="304" y="1002" on="0"/>
        <pt x="549" y="1198" on="1"/>
        <pt x="458" y="1266" on="0"/>
        <pt x="338" y="1343" on="1"/>
        <pt x="435" y="1490" on="1"/>
        <pt x="586" y="1398" on="0"/>
        <pt x="705" y="1308" on="1"/>
        <pt x="829" y="1389" on="0"/>
        <pt x="1014" y="1490" on="1"/>
        <pt x="1081" y="1343" on="1"/>
        <pt x="946" y="1269" on="0"/>
      </contour>
      <contour>
        <pt x="682" y="1092" on="1"/>
        <pt x="467" y="931" on="0"/>
        <pt x="274" y="601" on="0"/>
        <pt x="274" y="422" on="1"/>
        <pt x="274" y="286" on="0"/>
        <pt x="433" y="140" on="0"/>
        <pt x="582" y="140" on="1"/>
        <pt x="766" y="140" on="0"/>
        <pt x="963" y="362" on="0"/>
        <pt x="963" y="567" on="1"/>
        <pt x="963" y="719" on="0"/>
        <pt x="827" y="967" on="0"/>
      </contour>
    </TTGlyph>
    <TTGlyph name="glyph00005" xMin="100" yMin="-23" xMax="1398" yMax="1462">
      <contour>
        <pt x="1288" y="1462" on="1"/>
        <pt x="1211" y="710" on="1"/>
        <pt x="1290" y="717" on="0"/>
        <pt x="1398" y="720" on="1"/>
        <pt x="1374" y="565" on="1"/>
        <pt x="1193" y="555" on="1"/>
        <pt x="1165" y="378" on="0"/>
        <pt x="983" y="117" on="0"/>
        <pt x="684" y="-23" on="0"/>
        <pt x="499" y="-23" on="1"/>
        <pt x="309" y="-23" on="0"/>
        <pt x="117" y="110" on="0"/>
        <pt x="117" y="254" on="1"/>
        <pt x="117" y="408" on="0"/>
        <pt x="587" y="633" on="0"/>
        <pt x="1020" y="690" on="1"/>
        <pt x="1034" y="813" on="1"/>
        <pt x="960" y="777" on="0"/>
        <pt x="872" y="777" on="1"/>
        <pt x="722" y="777" on="0"/>
        <pt x="641" y="873" on="1"/>
        <pt x="539" y="777" on="0"/>
        <pt x="390" y="777" on="1"/>
        <pt x="250" y="777" on="0"/>
        <pt x="100" y="926" on="0"/>
        <pt x="100" y="1069" on="1"/>
        <pt x="103" y="1137" on="1"/>
        <pt x="136" y="1462" on="1"/>
        <pt x="320" y="1462" on="1"/>
        <pt x="290" y="1164" on="1"/>
        <pt x="282" y="1074" on="1"/>
        <pt x="282" y="1008" on="0"/>
        <pt x="348" y="937" on="0"/>
        <pt x="409" y="937" on="1"/>
        <pt x="566" y="937" on="0"/>
        <pt x="583" y="1105" on="1"/>
        <pt x="620" y="1462" on="1"/>
        <pt x="804" y="1462" on="1"/>
        <pt x="773" y="1152" on="1"/>
        <pt x="769" y="1085" on="1"/>
        <pt x="769" y="1009" on="0"/>
        <pt x="834" y="937" on="0"/>
        <pt x="901" y="937" on="1"/>
        <pt x="981" y="937" on="0"/>
        <pt x="1056" y="1024" on="0"/>
        <pt x="1065" y="1105" on="1"/>
        <pt x="1104" y="1462" on="1"/>
      </contour>
      <contour>
        <pt x="502" y="137" on="1"/>
        <pt x="701" y="137" on="0"/>
        <pt x="954" y="342" on="0"/>
        <pt x="997" y="534" on="1"/>
        <pt x="665" y="488" on="0"/>
        <pt x="301" y="341" on="0"/>
        <pt x="301" y="252" on="1"/>
        <pt x="301" y="187" on="0"/>
        <pt x="399" y="137" on="0"/>
      </contour>
    </TTGlyph>
    <TTGlyph name="glyph00006" xMin="40" yMin="-25" xMax="1351" yMax="1462">
      <contour>
        <pt x="1331" y="620" on="1"/>
        <pt x="1351" y="540" on="0"/>
        <pt x="1351" y="437" on="1"/>
        <pt x="1351" y="217" on="0"/>
        <pt x="1156" y="-25" on="0"/>
        <pt x="976" y="-25" on="1"/>
        <pt x="673" y="-25" on="0"/>
        <pt x="673" y="296" on="1"/>
        <pt x="673" y="310" on="0"/>
        <pt x="674" y="334" on="0"/>
        <pt x="745" y="1006" on="1"/>
        <pt x="595" y="1006" on="1"/>
        <pt x="615" y="958" on="0"/>
        <pt x="615" y="905" on="1"/>
        <pt x="615" y="770" on="0"/>
        <pt x="430" y="589" on="0"/>
        <pt x="297" y="589" on="1"/>
        <pt x="185" y="589" on="0"/>
        <pt x="40" y="737" on="0"/>
        <pt x="40" y="844" on="1"/>
        <pt x="40" y="923" on="0"/>
        <pt x="128" y="1072" on="0"/>
        <pt x="275" y="1160" on="0"/>
        <pt x="357" y="1160" on="1"/>
        <pt x="761" y="1160" on="1"/>
        <pt x="793" y="1462" on="1"/>
        <pt x="977" y="1462" on="1"/>
        <pt x="879" y="521" on="1"/>
        <pt x="863" y="370" on="0"/>
        <pt x="863" y="322" on="1"/>
        <pt x="863" y="221" on="0"/>
        <pt x="923" y="135" on="0"/>
        <pt x="982" y="135" on="1"/>
        <pt x="1072" y="135" on="0"/>
        <pt x="1171" y="280" on="0"/>
        <pt x="1171" y="421" on="1"/>
        <pt x="1171" y="499" on="0"/>
        <pt x="1156" y="577" on="1"/>
      </contour>
      <contour>
        <pt x="458" y="889" on="1"/>
        <pt x="458" y="937" on="0"/>
        <pt x="391" y="1004" on="0"/>
        <pt x="341" y="1004" on="1"/>
        <pt x="284" y="1004" on="0"/>
        <pt x="197" y="918" on="0"/>
        <pt x="197" y="861" on="1"/>
        <pt x="197" y="809" on="0"/>
        <pt x="266" y="745" on="0"/>
        <pt x="314" y="745" on="1"/>
        <pt x="370" y="745" on="0"/>
        <pt x="458" y="829" on="0"/>
      </contour>
    </TTGlyph>
    <TTGlyph name="glyph00007" xMin="140" yMin="0" xMax="477" yMax="1462">
      <contour>
        <pt x="140" y="0" on="1"/>
        <pt x="293" y="1462" on="1"/>
        <pt x="477" y="1462" on="1"/>
        <pt x="324" y="0" on="1"/>
      </contour>
    </TTGlyph>
    <TTGlyph name="glyph00008" xMin="100" yMin="-25" xMax="1514" yMax="1462">
      <contour>
        <pt x="1494" y="620" on="1"/>
        <pt x="1514" y="527" on="0"/>
        <pt x="1514" y="437" on="1"/>
        <pt x="1514" y="217" on="0"/>
        <pt x="1319" y="-25" on="0"/>
        <pt x="1139" y="-25" on="1"/>
        <pt x="836" y="-25" on="0"/>
        <pt x="836" y="296" on="1"/>
        <pt x="836" y="312" on="0"/>
        <pt x="845" y="422" on="0"/>
        <pt x="948" y="1240" on="1"/>
        <pt x="940" y="1240" on="1"/>
        <pt x="684" y="860" on="1"/>
        <pt x="584" y="860" on="1"/>
        <pt x="407" y="1242" on="1"/>
        <pt x="399" y="1242" on="1"/>
        <pt x="396" y="1077" on="0"/>
        <pt x="377" y="887" on="1"/>
        <pt x="284" y="0" on="1"/>
        <pt x="100" y="0" on="1"/>
        <pt x="253" y="1462" on="1"/>
        <pt x="478" y="1462" on="1"/>
        <pt x="657" y="1084" on="1"/>
        <pt x="911" y="1462" on="1"/>
        <pt x="1141" y="1462" on="1"/>
        <pt x="1042" y="521" on="1"/>
        <pt x="1026" y="370" on="0"/>
        <pt x="1026" y="322" on="1"/>
        <pt x="1026" y="221" on="0"/>
        <pt x="1086" y="135" on="0"/>
        <pt x="1145" y="135" on="1"/>
        <pt x="1235" y="135" on="0"/>
        <pt x="1334" y="280" on="0"/>
        <pt x="1334" y="421" on="1"/>
        <pt x="1334" y="483" on="0"/>
        <pt x="1319" y="577" on="1"/>
      </contour>
    </TTGlyph>
    <TTGlyph name="glyph00009" xMin="100" yMin="-25" xMax="1359" yMax="1484">
      <contour>
        <pt x="918" y="1208" on="1"/>
        <pt x="802" y="1324" on="0"/>
        <pt x="657" y="1324" on="1"/>
        <pt x="541" y="1324" on="0"/>
        <pt x="404" y="1159" on="0"/>
        <pt x="389" y="997" on="1"/>
        <pt x="378" y="898" on="1"/>
        <pt x="474" y="950" on="0"/>
        <pt x="594" y="950" on="1"/>
        <pt x="749" y="950" on="0"/>
        <pt x="895" y="795" on="0"/>
        <pt x="895" y="619" on="1"/>
        <pt x="895" y="554" on="0"/>
        <pt x="882" y="434" on="1"/>
        <pt x="869" y="313" on="0"/>
        <pt x="869" y="246" on="1"/>
        <pt x="869" y="192" on="0"/>
        <pt x="933" y="135" on="0"/>
        <pt x="990" y="135" on="1"/>
        <pt x="1085" y="135" on="0"/>
        <pt x="1179" y="251" on="0"/>
        <pt x="1179" y="389" on="1"/>
        <pt x="1179" y="499" on="0"/>
        <pt x="1164" y="577" on="1"/>
        <pt x="1339" y="620" on="1"/>
        <pt x="1359" y="508" on="0"/>
        <pt x="1359" y="417" on="1"/>
        <pt x="1359" y="203" on="0"/>
        <pt x="1168" y="-25" on="0"/>
        <pt x="984" y="-25" on="1"/>
        <pt x="827" y="-25" on="0"/>
        <pt x="679" y="112" on="0"/>
        <pt x="679" y="245" on="1"/>
        <pt x="679" y="309" on="0"/>
        <pt x="694" y="419" on="1"/>
        <pt x="709" y="529" on="0"/>
        <pt x="709" y="599" on="1"/>
        <pt x="709" y="705" on="0"/>
        <pt x="639" y="790" on="0"/>
        <pt x="552" y="790" on="1"/>
        <pt x="428" y="790" on="0"/>
        <pt x="359" y="710" on="1"/>
        <pt x="285" y="0" on="1"/>
        <pt x="100" y="0" on="1"/>
        <pt x="205" y="1006" on="1"/>
        <pt x="229" y="1239" on="0"/>
        <pt x="467" y="1484" on="0"/>
        <pt x="677" y="1484" on="1"/>
        <pt x="780" y="1484" on="0"/>
        <pt x="953" y="1415" on="0"/>
        <pt x="1046" y="1327" on="1"/>
      </contour>
    </TTGlyph>
    <TTGlyph name="glyph00010" xMin="110" yMin="-22" xMax="1394" yMax="1485">
      <contour>
        <pt x="1394" y="838" on="1"/>
        <pt x="1394" y="433" on="0"/>
        <pt x="1013" y="-22" on="0"/>
        <pt x="673" y="-22" on="1"/>
        <pt x="404" y="-22" on="0"/>
        <pt x="110" y="319" on="0"/>
        <pt x="110" y="622" on="1"/>
        <pt x="110" y="883" on="0"/>
        <pt x="283" y="1275" on="0"/>
        <pt x="609" y="1485" on="0"/>
        <pt x="834" y="1485" on="1"/>
        <pt x="1099" y="1485" on="0"/>
        <pt x="1394" y="1138" on="0"/>
      </contour>
      <contour>
        <pt x="1200" y="835" on="1"/>
        <pt x="1200" y="1070" on="0"/>
        <pt x="1002" y="1325" on="0"/>
        <pt x="817" y="1325" on="1"/>
        <pt x="577" y="1325" on="0"/>
        <pt x="304" y="962" on="0"/>
        <pt x="304" y="631" on="1"/>
        <pt x="304" y="394" on="0"/>
        <pt x="505" y="138" on="0"/>
        <pt x="690" y="138" on="1"/>
        <pt x="932" y="138" on="0"/>
        <pt x="1200" y="509" on="0"/>
      </contour>
    </TTGlyph>
    <TTGlyph name="glyph00011" xMin="0" yMin="0" xMax="837" yMax="1484">
      <contour>
        <pt x="0" y="1442" on="1"/>
        <pt x="84" y="1484" on="0"/>
        <pt x="196" y="1484" on="1"/>
        <pt x="265" y="1484" on="0"/>
        <pt x="363" y="1463" on="1"/>
        <pt x="460" y="1441" on="0"/>
        <pt x="540" y="1441" on="1"/>
        <pt x="610" y="1441" on="0"/>
        <pt x="715" y="1462" on="1"/>
        <pt x="837" y="1462" on="1"/>
        <pt x="684" y="0" on="1"/>
        <pt x="500" y="0" on="1"/>
        <pt x="637" y="1295" on="1"/>
        <pt x="563" y="1281" on="0"/>
        <pt x="520" y="1281" on="1"/>
        <pt x="439" y="1281" on="0"/>
        <pt x="340" y="1303" on="1"/>
        <pt x="241" y="1324" on="0"/>
        <pt x="196" y="1324" on="1"/>
        <pt x="118" y="1324" on="0"/>
        <pt x="62" y="1303" on="1"/>
      </contour>
    </TTGlyph>
    <TTGlyph name="glyph00012" xMin="60" yMin="-22" xMax="1035" yMax="1484">
      <contour>
        <pt x="60" y="1401" on="1"/>
        <pt x="141" y="1447" on="0"/>
        <pt x="287" y="1484" on="0"/>
        <pt x="368" y="1484" on="1"/>
        <pt x="512" y="1484" on="0"/>
        <pt x="676" y="1338" on="0"/>
        <pt x="676" y="1214" on="1"/>
        <pt x="676" y="1085" on="0"/>
        <pt x="598" y="950" on="1"/>
        <pt x="812" y="899" on="0"/>
        <pt x="1035" y="660" on="0"/>
        <pt x="1035" y="482" on="1"/>
        <pt x="1035" y="259" on="0"/>
        <pt x="754" y="-22" on="0"/>
        <pt x="525" y="-22" on="1"/>
        <pt x="338" y="-22" on="0"/>
        <pt x="115" y="177" on="0"/>
        <pt x="115" y="335" on="1"/>
        <pt x="115" y="449" on="0"/>
        <pt x="204" y="677" on="0"/>
        <pt x="298" y="808" on="1"/>
        <pt x="402" y="954" on="0"/>
        <pt x="481" y="1120" on="0"/>
        <pt x="481" y="1198" on="1"/>
        <pt x="481" y="1257" on="0"/>
        <pt x="403" y="1324" on="0"/>
        <pt x="338" y="1324" on="1"/>
        <pt x="224" y="1324" on="0"/>
        <pt x="123" y="1264" on="1"/>
      </contour>
      <contour>
        <pt x="497" y="805" on="1"/>
        <pt x="411" y="687" on="0"/>
        <pt x="346" y="561" on="0"/>
        <pt x="310" y="429" on="0"/>
        <pt x="310" y="353" on="1"/>
        <pt x="310" y="255" on="0"/>
        <pt x="444" y="138" on="0"/>
        <pt x="555" y="138" on="1"/>
        <pt x="639" y="138" on="0"/>
        <pt x="769" y="227" on="0"/>
        <pt x="841" y="380" on="0"/>
        <pt x="841" y="470" on="1"/>
        <pt x="841" y="596" on="0"/>
        <pt x="668" y="773" on="0"/>
      </contour>
    </TTGlyph>
    <TTGlyph name="glyph00013" xMin="100" yMin="-22" xMax="1075" yMax="1484">
      <contour>
        <pt x="1075" y="61" on="1"/>
        <pt x="994" y="15" on="0"/>
        <pt x="848" y="-22" on="0"/>
        <pt x="767" y="-22" on="1"/>
        <pt x="623" y="-22" on="0"/>
        <pt x="459" y="124" on="0"/>
        <pt x="459" y="248" on="1"/>
        <pt x="459" y="379" on="0"/>
        <pt x="537" y="508" on="1"/>
        <pt x="329" y="556" on="0"/>
        <pt x="100" y="794" on="0"/>
        <pt x="100" y="977" on="1"/>
        <pt x="100" y="1203" on="0"/>
        <pt x="381" y="1484" on="0"/>
        <pt x="610" y="1484" on="1"/>
        <pt x="732" y="1484" on="0"/>
        <pt x="918" y="1393" on="0"/>
        <pt x="1020" y="1229" on="0"/>
        <pt x="1020" y="1124" on="1"/>
        <pt x="1020" y="1010" on="0"/>
        <pt x="930" y="782" on="0"/>
        <pt x="837" y="653" on="1"/>
        <pt x="732" y="506" on="0"/>
        <pt x="654" y="339" on="0"/>
        <pt x="654" y="264" on="1"/>
        <pt x="654" y="205" on="0"/>
        <pt x="732" y="138" on="0"/>
        <pt x="797" y="138" on="1"/>
        <pt x="911" y="138" on="0"/>
        <pt x="1012" y="198" on="1"/>
      </contour>
      <contour>
        <pt x="637" y="654" on="1"/>
        <pt x="719" y="763" on="0"/>
        <pt x="787" y="894" on="0"/>
        <pt x="825" y="1030" on="0"/>
        <pt x="825" y="1106" on="1"/>
        <pt x="825" y="1205" on="0"/>
        <pt x="691" y="1324" on="0"/>
        <pt x="580" y="1324" on="1"/>
        <pt x="496" y="1324" on="0"/>
        <pt x="365" y="1233" on="0"/>
        <pt x="294" y="1078" on="0"/>
        <pt x="294" y="989" on="1"/>
        <pt x="294" y="862" on="0"/>
        <pt x="469" y="686" on="0"/>
      </contour>
    </TTGlyph>
    <TTGlyph name="glyph00014" xMin="30" yMin="-22" xMax="1236" yMax="1484">
      <contour>
        <pt x="30" y="1476" on="1"/>
        <pt x="62" y="1484" on="0"/>
        <pt x="121" y="1484" on="1"/>
        <pt x="168" y="1484" on="0"/>
        <pt x="257" y="1464" on="1"/>
        <pt x="345" y="1443" on="0"/>
        <pt x="385" y="1443" on="1"/>
        <pt x="480" y="1443" on="0"/>
        <pt x="532" y="1462" on="1"/>
        <pt x="663" y="1462" on="1"/>
        <pt x="550" y="415" on="1"/>
        <pt x="544" y="357" on="0"/>
        <pt x="544" y="305" on="1"/>
        <pt x="547" y="138" on="0"/>
        <pt x="662" y="138" on="1"/>
        <pt x="757" y="138" on="0"/>
        <pt x="844" y="311" on="0"/>
        <pt x="844" y="479" on="1"/>
        <pt x="844" y="597" on="0"/>
        <pt x="806" y="658" on="1"/>
        <pt x="817" y="810" on="1"/>
        <pt x="927" y="800" on="0"/>
        <pt x="1028" y="800" on="1"/>
        <pt x="1130" y="800" on="0"/>
        <pt x="1236" y="810" on="1"/>
        <pt x="1216" y="648" on="1"/>
        <pt x="1134" y="640" on="0"/>
        <pt x="1015" y="640" on="1"/>
        <pt x="1029" y="583" on="0"/>
        <pt x="1029" y="453" on="1"/>
        <pt x="1029" y="316" on="0"/>
        <pt x="940" y="96" on="0"/>
        <pt x="777" y="-22" on="0"/>
        <pt x="667" y="-22" on="1"/>
        <pt x="359" y="-22" on="0"/>
        <pt x="359" y="299" on="1"/>
        <pt x="359" y="349" on="0"/>
        <pt x="365" y="406" on="1"/>
        <pt x="462" y="1290" on="1"/>
        <pt x="426" y="1280" on="0"/>
        <pt x="386" y="1280" on="1"/>
        <pt x="338" y="1280" on="0"/>
        <pt x="242" y="1302" on="1"/>
        <pt x="146" y="1324" on="0"/>
        <pt x="122" y="1324" on="1"/>
        <pt x="55" y="1321" on="1"/>
      </contour>
    </TTGlyph>
    <TTGlyph name="glyph00015" xMin="0" yMin="-22" xMax="952" yMax="1462">
      <contour>
        <pt x="809" y="619" on="1"/>
        <pt x="872" y="624" on="0"/>
        <pt x="952" y="624" on="1"/>
        <pt x="928" y="469" on="1"/>
        <pt x="875" y="469" on="0"/>
        <pt x="775" y="462" on="1"/>
        <pt x="707" y="227" on="0"/>
        <pt x="443" y="-22" on="0"/>
        <pt x="268" y="-22" on="1"/>
        <pt x="140" y="-22" on="0"/>
        <pt x="0" y="96" on="0"/>
        <pt x="0" y="211" on="1"/>
        <pt x="0" y="306" on="0"/>
        <pt x="145" y="461" on="0"/>
        <pt x="426" y="570" on="0"/>
        <pt x="615" y="598" on="1"/>
        <pt x="628" y="678" on="0"/>
        <pt x="644" y="813" on="1"/>
        <pt x="570" y="777" on="0"/>
        <pt x="482" y="777" on="1"/>
        <pt x="346" y="777" on="0"/>
        <pt x="190" y="913" on="0"/>
        <pt x="190" y="1051" on="1"/>
        <pt x="193" y="1105" on="1"/>
        <pt x="230" y="1462" on="1"/>
        <pt x="414" y="1462" on="1"/>
        <pt x="383" y="1152" on="1"/>
        <pt x="379" y="1085" on="1"/>
        <pt x="379" y="1009" on="0"/>
        <pt x="444" y="937" on="0"/>
        <pt x="511" y="937" on="1"/>
        <pt x="591" y="937" on="0"/>
        <pt x="666" y="1024" on="0"/>
        <pt x="675" y="1105" on="1"/>
        <pt x="714" y="1462" on="1"/>
        <pt x="898" y="1462" on="1"/>
        <pt x="822" y="716" on="1"/>
      </contour>
      <contour>
        <pt x="581" y="437" on="1"/>
        <pt x="392" y="405" on="0"/>
        <pt x="184" y="290" on="0"/>
        <pt x="184" y="214" on="1"/>
        <pt x="184" y="184" on="0"/>
        <pt x="232" y="138" on="0"/>
        <pt x="273" y="138" on="1"/>
        <pt x="496" y="138" on="0"/>
      </contour>
    </TTGlyph>
    <TTGlyph name="glyph00016" xMin="100" yMin="-22" xMax="1334" yMax="1484">
      <contour>
        <pt x="100" y="0" on="1"/>
        <pt x="149" y="492" on="1"/>
        <pt x="159" y="597" on="0"/>
        <pt x="192" y="707" on="0"/>
        <pt x="259" y="793" on="0"/>
        <pt x="377" y="896" on="1"/>
        <pt x="287" y="988" on="0"/>
        <pt x="213" y="1141" on="0"/>
        <pt x="213" y="1223" on="1"/>
        <pt x="213" y="1294" on="0"/>
        <pt x="284" y="1415" on="0"/>
        <pt x="417" y="1484" on="0"/>
        <pt x="506" y="1484" on="1"/>
        <pt x="648" y="1484" on="0"/>
        <pt x="808" y="1348" on="0"/>
        <pt x="808" y="1233" on="1"/>
        <pt x="808" y="1146" on="0"/>
        <pt x="735" y="992" on="0"/>
        <pt x="641" y="897" on="1"/>
        <pt x="693" y="857" on="1"/>
        <pt x="783" y="787" on="0"/>
        <pt x="865" y="644" on="0"/>
        <pt x="865" y="550" on="1"/>
        <pt x="865" y="517" on="0"/>
        <pt x="856" y="443" on="1"/>
        <pt x="846" y="368" on="0"/>
        <pt x="846" y="325" on="1"/>
        <pt x="846" y="224" on="0"/>
        <pt x="906" y="138" on="0"/>
        <pt x="965" y="138" on="1"/>
        <pt x="1055" y="138" on="0"/>
        <pt x="1154" y="283" on="0"/>
        <pt x="1154" y="424" on="1"/>
        <pt x="1154" y="506" on="0"/>
        <pt x="1139" y="577" on="1"/>
        <pt x="1314" y="620" on="1"/>
        <pt x="1334" y="540" on="0"/>
        <pt x="1334" y="440" on="1"/>
        <pt x="1334" y="221" on="0"/>
        <pt x="1134" y="-22" on="0"/>
        <pt x="954" y="-22" on="1"/>
        <pt x="816" y="-22" on="0"/>
        <pt x="656" y="138" on="0"/>
        <pt x="656" y="299" on="1"/>
        <pt x="656" y="353" on="0"/>
        <pt x="673" y="456" on="0"/>
        <pt x="673" y="513" on="1"/>
        <pt x="673" y="630" on="0"/>
        <pt x="585" y="708" on="1"/>
        <pt x="509" y="776" on="1"/>
        <pt x="408" y="683" on="0"/>
        <pt x="342" y="567" on="0"/>
        <pt x="333" y="483" on="1"/>
        <pt x="285" y="0" on="1"/>
      </contour>
      <contour>
        <pt x="508" y="1009" on="1"/>
        <pt x="564" y="1060" on="0"/>
        <pt x="603" y="1116" on="0"/>
        <pt x="623" y="1179" on="0"/>
        <pt x="623" y="1218" on="1"/>
        <pt x="623" y="1269" on="0"/>
        <pt x="555" y="1324" on="0"/>
        <pt x="507" y="1324" on="1"/>
        <pt x="461" y="1324" on="0"/>
        <pt x="397" y="1263" on="0"/>
        <pt x="397" y="1221" on="1"/>
        <pt x="397" y="1161" on="0"/>
        <pt x="457" y="1060" on="0"/>
      </contour>
    </TTGlyph>
    <TTGlyph name="glyph00017" xMin="60" yMin="-22" xMax="1141" yMax="1462">
      <contour>
        <pt x="1121" y="620" on="1"/>
        <pt x="1141" y="527" on="0"/>
        <pt x="1141" y="437" on="1"/>
        <pt x="1141" y="216" on="0"/>
        <pt x="946" y="-22" on="0"/>
        <pt x="766" y="-22" on="1"/>
        <pt x="623" y="-22" on="0"/>
        <pt x="463" y="146" on="0"/>
        <pt x="463" y="299" on="1"/>
        <pt x="463" y="335" on="0"/>
        <pt x="474" y="429" on="1"/>
        <pt x="514" y="809" on="1"/>
        <pt x="444" y="777" on="0"/>
        <pt x="352" y="777" on="1"/>
        <pt x="216" y="777" on="0"/>
        <pt x="60" y="913" on="0"/>
        <pt x="60" y="1051" on="1"/>
        <pt x="63" y="1105" on="1"/>
        <pt x="100" y="1462" on="1"/>
        <pt x="284" y="1462" on="1"/>
        <pt x="253" y="1152" on="1"/>
        <pt x="249" y="1085" on="1"/>
        <pt x="249" y="1009" on="0"/>
        <pt x="314" y="937" on="0"/>
        <pt x="381" y="937" on="1"/>
        <pt x="461" y="937" on="0"/>
        <pt x="536" y="1024" on="0"/>
        <pt x="545" y="1105" on="1"/>
        <pt x="584" y="1462" on="1"/>
        <pt x="768" y="1462" on="1"/>
        <pt x="669" y="521" on="1"/>
        <pt x="653" y="370" on="0"/>
        <pt x="653" y="325" on="1"/>
        <pt x="653" y="224" on="0"/>
        <pt x="713" y="138" on="0"/>
        <pt x="772" y="138" on="1"/>
        <pt x="862" y="138" on="0"/>
        <pt x="961" y="281" on="0"/>
        <pt x="961" y="421" on="1"/>
        <pt x="961" y="502" on="0"/>
        <pt x="946" y="577" on="1"/>
      </contour>
    </TTGlyph>
    <TTGlyph name="glyph00018" xMin="0" yMin="-22" xMax="1513" yMax="1484">
      <contour>
        <pt x="1493" y="620" on="1"/>
        <pt x="1513" y="508" on="0"/>
        <pt x="1513" y="437" on="1"/>
        <pt x="1513" y="216" on="0"/>
        <pt x="1318" y="-22" on="0"/>
        <pt x="1138" y="-22" on="1"/>
        <pt x="996" y="-22" on="0"/>
        <pt x="835" y="138" on="0"/>
        <pt x="835" y="299" on="1"/>
        <pt x="835" y="326" on="0"/>
        <pt x="843" y="414" on="0"/>
        <pt x="881" y="747" on="1"/>
        <pt x="843" y="728" on="0"/>
        <pt x="656" y="646" on="1"/>
        <pt x="630" y="369" on="1"/>
        <pt x="592" y="-22" on="0"/>
        <pt x="263" y="-22" on="1"/>
        <pt x="145" y="-22" on="0"/>
        <pt x="0" y="133" on="0"/>
        <pt x="0" y="258" on="1"/>
        <pt x="0" y="356" on="0"/>
        <pt x="102" y="517" on="0"/>
        <pt x="288" y="655" on="0"/>
        <pt x="482" y="743" on="1"/>
        <pt x="516" y="1105" on="1"/>
        <pt x="516" y="1133" on="1"/>
        <pt x="516" y="1234" on="0"/>
        <pt x="439" y="1324" on="0"/>
        <pt x="351" y="1324" on="1"/>
        <pt x="314" y="1324" on="0"/>
        <pt x="233" y="1295" on="0"/>
        <pt x="204" y="1267" on="1"/>
        <pt x="104" y="1400" on="1"/>
        <pt x="203" y="1484" on="0"/>
        <pt x="387" y="1484" on="1"/>
        <pt x="547" y="1484" on="0"/>
        <pt x="705" y="1322" on="0"/>
        <pt x="705" y="1153" on="1"/>
        <pt x="703" y="1115" on="1"/>
        <pt x="673" y="824" on="1"/>
        <pt x="815" y="884" on="0"/>
        <pt x="903" y="935" on="1"/>
        <pt x="920" y="1095" on="1"/>
        <pt x="941" y="1297" on="0"/>
        <pt x="1105" y="1484" on="0"/>
        <pt x="1263" y="1484" on="1"/>
        <pt x="1362" y="1484" on="0"/>
        <pt x="1482" y="1371" on="0"/>
        <pt x="1482" y="1283" on="1"/>
        <pt x="1482" y="1165" on="0"/>
        <pt x="1298" y="959" on="0"/>
        <pt x="1078" y="847" on="1"/>
        <pt x="1052" y="614" on="0"/>
        <pt x="1025" y="375" on="0"/>
        <pt x="1025" y="325" on="1"/>
        <pt x="1025" y="224" on="0"/>
        <pt x="1085" y="138" on="0"/>
        <pt x="1144" y="138" on="1"/>
        <pt x="1234" y="138" on="0"/>
        <pt x="1333" y="281" on="0"/>
        <pt x="1333" y="421" on="1"/>
        <pt x="1333" y="447" on="0"/>
        <pt x="1318" y="577" on="1"/>
      </contour>
      <contour>
        <pt x="465" y="559" on="1"/>
        <pt x="308" y="480" on="0"/>
        <pt x="185" y="347" on="0"/>
        <pt x="185" y="272" on="1"/>
        <pt x="185" y="206" on="0"/>
        <pt x="246" y="138" on="0"/>
        <pt x="291" y="138" on="1"/>
        <pt x="350" y="138" on="0"/>
        <pt x="437" y="261" on="0"/>
        <pt x="448" y="374" on="1"/>
      </contour>
      <contour>
        <pt x="1096" y="1032" on="1"/>
        <pt x="1201" y="1092" on="0"/>
        <pt x="1297" y="1199" on="0"/>
        <pt x="1297" y="1253" on="1"/>
        <pt x="1297" y="1281" on="0"/>
        <pt x="1261" y="1324" on="0"/>
        <pt x="1229" y="1324" on="1"/>
        <pt x="1170" y="1324" on="0"/>
        <pt x="1113" y="1203" on="0"/>
        <pt x="1102" y="1090" on="1"/>
      </contour>
    </TTGlyph>
    <TTGlyph name="glyph00019" xMin="40" yMin="0" xMax="863" yMax="1462">
      <contour>
        <pt x="525" y="0" on="1"/>
        <pt x="561" y="353" on="1"/>
        <pt x="561" y="412" on="0"/>
        <pt x="482" y="482" on="0"/>
        <pt x="400" y="482" on="1"/>
        <pt x="329" y="482" on="0"/>
        <pt x="267" y="395" on="0"/>
        <pt x="258" y="314" on="1"/>
        <pt x="224" y="0" on="1"/>
        <pt x="40" y="0" on="1"/>
        <pt x="74" y="336" on="1"/>
        <pt x="106" y="642" on="0"/>
        <pt x="393" y="642" on="1"/>
        <pt x="505" y="642" on="0"/>
        <pt x="587" y="600" on="1"/>
        <pt x="609" y="813" on="1"/>
        <pt x="535" y="777" on="0"/>
        <pt x="447" y="777" on="1"/>
        <pt x="311" y="777" on="0"/>
        <pt x="155" y="913" on="0"/>
        <pt x="155" y="1051" on="1"/>
        <pt x="158" y="1105" on="1"/>
        <pt x="195" y="1462" on="1"/>
        <pt x="379" y="1462" on="1"/>
        <pt x="348" y="1152" on="1"/>
        <pt x="344" y="1085" on="1"/>
        <pt x="344" y="1009" on="0"/>
        <pt x="409" y="937" on="0"/>
        <pt x="476" y="937" on="1"/>
        <pt x="556" y="937" on="0"/>
        <pt x="631" y="1024" on="0"/>
        <pt x="640" y="1105" on="1"/>
        <pt x="679" y="1462" on="1"/>
        <pt x="863" y="1462" on="1"/>
        <pt x="709" y="0" on="1"/>
      </contour>
    </TTGlyph>
    <TTGlyph name="glyph00020" xMin="100" yMin="-22" xMax="1431" yMax="1484">
      <contour>
        <pt x="1411" y="620" on="1"/>
        <pt x="1431" y="540" on="0"/>
        <pt x="1431" y="440" on="1"/>
        <pt x="1431" y="220" on="0"/>
        <pt x="1236" y="-22" on="0"/>
        <pt x="1056" y="-22" on="1"/>
        <pt x="913" y="-22" on="0"/>
        <pt x="753" y="137" on="0"/>
        <pt x="753" y="299" on="1"/>
        <pt x="753" y="352" on="0"/>
        <pt x="770" y="496" on="1"/>
        <pt x="821" y="948" on="1"/>
        <pt x="829" y="1009" on="0"/>
        <pt x="829" y="1085" on="1"/>
        <pt x="829" y="1215" on="0"/>
        <pt x="737" y="1325" on="0"/>
        <pt x="638" y="1325" on="1"/>
        <pt x="557" y="1325" on="0"/>
        <pt x="456" y="1252" on="0"/>
        <pt x="399" y="1107" on="0"/>
        <pt x="363" y="770" on="0"/>
        <pt x="283" y="0" on="1"/>
        <pt x="100" y="0" on="1"/>
        <pt x="199" y="946" on="1"/>
        <pt x="218" y="1126" on="0"/>
        <pt x="279" y="1313" on="0"/>
        <pt x="386" y="1427" on="0"/>
        <pt x="551" y="1484" on="0"/>
        <pt x="666" y="1484" on="1"/>
        <pt x="793" y="1484" on="0"/>
        <pt x="947" y="1413" on="0"/>
        <pt x="1019" y="1268" on="0"/>
        <pt x="1019" y="1138" on="1"/>
        <pt x="1019" y="1059" on="0"/>
        <pt x="1006" y="942" on="1"/>
        <pt x="975" y="667" on="0"/>
        <pt x="943" y="385" on="0"/>
        <pt x="943" y="325" on="1"/>
        <pt x="943" y="224" on="0"/>
        <pt x="1003" y="138" on="0"/>
        <pt x="1062" y="138" on="1"/>
        <pt x="1152" y="138" on="0"/>
        <pt x="1251" y="283" on="0"/>
        <pt x="1251" y="424" on="1"/>
        <pt x="1251" y="506" on="0"/>
        <pt x="1236" y="577" on="1"/>
      </contour>
    </TTGlyph>
    <TTGlyph name="glyph00021" xMin="40" yMin="-22" xMax="927" yMax="1462">
      <contour>
        <pt x="104" y="620" on="1"/>
        <pt x="193" y="1462" on="1"/>
        <pt x="377" y="1462" on="1"/>
        <pt x="325" y="974" on="1"/>
        <pt x="356" y="993" on="0"/>
        <pt x="461" y="1017" on="0"/>
        <pt x="509" y="1017" on="1"/>
        <pt x="704" y="1017" on="0"/>
        <pt x="927" y="768" on="0"/>
        <pt x="927" y="548" on="1"/>
        <pt x="927" y="274" on="0"/>
        <pt x="683" y="-22" on="0"/>
        <pt x="458" y="-22" on="1"/>
        <pt x="274" y="-22" on="0"/>
        <pt x="71" y="142" on="0"/>
        <pt x="40" y="314" on="1"/>
        <pt x="221" y="325" on="1"/>
        <pt x="239" y="229" on="0"/>
        <pt x="352" y="138" on="0"/>
        <pt x="456" y="138" on="1"/>
        <pt x="588" y="138" on="0"/>
        <pt x="733" y="355" on="0"/>
        <pt x="733" y="541" on="1"/>
        <pt x="733" y="693" on="0"/>
        <pt x="610" y="857" on="0"/>
        <pt x="497" y="857" on="1"/>
        <pt x="443" y="857" on="0"/>
        <pt x="329" y="812" on="0"/>
        <pt x="304" y="778" on="1"/>
        <pt x="288" y="620" on="1"/>
      </contour>
    </TTGlyph>
    <TTGlyph name="glyph00022" xMin="70" yMin="-22" xMax="1039" yMax="1484">
      <contour>
        <pt x="1039" y="640" on="1"/>
        <pt x="1026" y="515" on="1"/>
        <pt x="969" y="-22" on="0"/>
        <pt x="472" y="-22" on="1"/>
        <pt x="344" y="-22" on="0"/>
        <pt x="165" y="74" on="0"/>
        <pt x="70" y="248" on="0"/>
        <pt x="70" y="360" on="1"/>
        <pt x="70" y="435" on="0"/>
        <pt x="122" y="548" on="0"/>
        <pt x="207" y="638" on="0"/>
        <pt x="316" y="712" on="0"/>
        <pt x="429" y="786" on="0"/>
        <pt x="538" y="866" on="0"/>
        <pt x="623" y="967" on="0"/>
        <pt x="675" y="1095" on="0"/>
        <pt x="675" y="1180" on="1"/>
        <pt x="675" y="1244" on="0"/>
        <pt x="598" y="1324" on="0"/>
        <pt x="514" y="1324" on="1"/>
        <pt x="337" y="1324" on="0"/>
        <pt x="311" y="1142" on="1"/>
        <pt x="123" y="1173" on="1"/>
        <pt x="152" y="1336" on="0"/>
        <pt x="345" y="1484" on="0"/>
        <pt x="520" y="1484" on="1"/>
        <pt x="686" y="1484" on="0"/>
        <pt x="869" y="1322" on="0"/>
        <pt x="869" y="1183" on="1"/>
        <pt x="869" y="1070" on="0"/>
        <pt x="789" y="882" on="0"/>
        <pt x="635" y="728" on="0"/>
        <pt x="456" y="613" on="1"/>
        <pt x="356" y="549" on="0"/>
        <pt x="264" y="435" on="0"/>
        <pt x="264" y="373" on="1"/>
        <pt x="264" y="260" on="0"/>
        <pt x="387" y="138" on="0"/>
        <pt x="507" y="138" on="1"/>
        <pt x="647" y="138" on="0"/>
        <pt x="825" y="353" on="0"/>
        <pt x="844" y="542" on="1"/>
        <pt x="854" y="640" on="1"/>
      </contour>
    </TTGlyph>
    <TTGlyph name="glyph00023" xMin="80" yMin="-22" xMax="1699" yMax="1462">
      <contour>
        <pt x="450" y="0" on="1"/>
        <pt x="534" y="813" on="1"/>
        <pt x="460" y="777" on="0"/>
        <pt x="372" y="777" on="1"/>
        <pt x="236" y="777" on="0"/>
        <pt x="80" y="913" on="0"/>
        <pt x="80" y="1051" on="1"/>
        <pt x="83" y="1105" on="1"/>
        <pt x="120" y="1462" on="1"/>
        <pt x="304" y="1462" on="1"/>
        <pt x="273" y="1152" on="1"/>
        <pt x="269" y="1085" on="1"/>
        <pt x="269" y="1009" on="0"/>
        <pt x="334" y="937" on="0"/>
        <pt x="401" y="937" on="1"/>
        <pt x="481" y="937" on="0"/>
        <pt x="556" y="1024" on="0"/>
        <pt x="565" y="1105" on="1"/>
        <pt x="604" y="1462" on="1"/>
        <pt x="788" y="1462" on="1"/>
        <pt x="729" y="904" on="1"/>
        <pt x="821" y="950" on="0"/>
        <pt x="934" y="950" on="1"/>
        <pt x="1089" y="950" on="0"/>
        <pt x="1235" y="795" on="0"/>
        <pt x="1235" y="619" on="1"/>
        <pt x="1235" y="555" on="0"/>
        <pt x="1222" y="435" on="1"/>
        <pt x="1209" y="315" on="0"/>
        <pt x="1209" y="249" on="1"/>
        <pt x="1209" y="195" on="0"/>
        <pt x="1273" y="138" on="0"/>
        <pt x="1330" y="138" on="1"/>
        <pt x="1426" y="138" on="0"/>
        <pt x="1519" y="253" on="0"/>
        <pt x="1519" y="389" on="1"/>
        <pt x="1519" y="499" on="0"/>
        <pt x="1504" y="577" on="1"/>
        <pt x="1679" y="620" on="1"/>
        <pt x="1699" y="540" on="0"/>
        <pt x="1699" y="417" on="1"/>
        <pt x="1699" y="203" on="0"/>
        <pt x="1507" y="-22" on="0"/>
        <pt x="1324" y="-22" on="1"/>
        <pt x="1167" y="-22" on="0"/>
        <pt x="1019" y="115" on="0"/>
        <pt x="1019" y="248" on="1"/>
        <pt x="1019" y="312" on="0"/>
        <pt x="1034" y="421" on="1"/>
        <pt x="1049" y="529" on="0"/>
        <pt x="1049" y="599" on="1"/>
        <pt x="1049" y="705" on="0"/>
        <pt x="979" y="790" on="0"/>
        <pt x="892" y="790" on="1"/>
        <pt x="778" y="790" on="0"/>
        <pt x="710" y="722" on="1"/>
        <pt x="634" y="0" on="1"/>
      </contour>
    </TTGlyph>
    <TTGlyph name="glyph00024" xMin="100" yMin="-22" xMax="1107" yMax="1462">
      <contour>
        <pt x="922" y="1462" on="1"/>
        <pt x="953" y="1381" on="0"/>
        <pt x="996" y="1100" on="0"/>
        <pt x="996" y="979" on="1"/>
        <pt x="996" y="840" on="0"/>
        <pt x="850" y="684" on="0"/>
        <pt x="712" y="684" on="1"/>
        <pt x="550" y="684" on="0"/>
        <pt x="442" y="779" on="1"/>
        <pt x="291" y="656" on="0"/>
        <pt x="291" y="448" on="1"/>
        <pt x="291" y="299" on="0"/>
        <pt x="431" y="138" on="0"/>
        <pt x="555" y="138" on="1"/>
        <pt x="645" y="138" on="0"/>
        <pt x="797" y="236" on="0"/>
        <pt x="901" y="437" on="0"/>
        <pt x="912" y="550" on="1"/>
        <pt x="1107" y="550" on="1"/>
        <pt x="1061" y="262" on="0"/>
        <pt x="787" y="-22" on="0"/>
        <pt x="532" y="-22" on="1"/>
        <pt x="402" y="-22" on="0"/>
        <pt x="206" y="98" on="0"/>
        <pt x="100" y="304" on="0"/>
        <pt x="100" y="425" on="1"/>
        <pt x="100" y="572" on="0"/>
        <pt x="228" y="820" on="0"/>
        <pt x="342" y="904" on="1"/>
        <pt x="261" y="1048" on="0"/>
        <pt x="240" y="1252" on="1"/>
        <pt x="217" y="1462" on="1"/>
        <pt x="402" y="1462" on="1"/>
        <pt x="420" y="1290" on="1"/>
        <pt x="434" y="1162" on="0"/>
        <pt x="512" y="950" on="0"/>
        <pt x="623" y="844" on="0"/>
        <pt x="688" y="844" on="1"/>
        <pt x="747" y="844" on="0"/>
        <pt x="809" y="911" on="0"/>
        <pt x="809" y="973" on="1"/>
        <pt x="809" y="1084" on="0"/>
        <pt x="770" y="1362" on="0"/>
        <pt x="738" y="1462" on="1"/>
      </contour>
    </TTGlyph>
    <TTGlyph name="glyph00025" xMin="100" yMin="-22" xMax="1069" yMax="1484">
      <contour>
        <pt x="512" y="-22" on="1"/>
        <pt x="316" y="-22" on="0"/>
        <pt x="100" y="207" on="0"/>
        <pt x="100" y="415" on="1"/>
        <pt x="100" y="544" on="0"/>
        <pt x="221" y="776" on="0"/>
        <pt x="352" y="898" on="1"/>
        <pt x="265" y="988" on="0"/>
        <pt x="183" y="1144" on="0"/>
        <pt x="183" y="1223" on="1"/>
        <pt x="183" y="1342" on="0"/>
        <pt x="351" y="1484" on="0"/>
        <pt x="490" y="1484" on="1"/>
        <pt x="622" y="1484" on="0"/>
        <pt x="778" y="1350" on="0"/>
        <pt x="778" y="1233" on="1"/>
        <pt x="778" y="1147" on="0"/>
        <pt x="707" y="994" on="0"/>
        <pt x="612" y="898" on="1"/>
        <pt x="664" y="853" on="0"/>
        <pt x="710" y="821" on="1"/>
        <pt x="582" y="690" on="1"/>
        <pt x="482" y="778" on="1"/>
        <pt x="378" y="682" on="0"/>
        <pt x="291" y="517" on="0"/>
        <pt x="291" y="428" on="1"/>
        <pt x="291" y="276" on="0"/>
        <pt x="413" y="138" on="0"/>
        <pt x="547" y="138" on="1"/>
        <pt x="683" y="138" on="0"/>
        <pt x="853" y="359" on="0"/>
        <pt x="876" y="561" on="1"/>
        <pt x="884" y="640" on="1"/>
        <pt x="1069" y="640" on="1"/>
        <pt x="1059" y="542" on="1"/>
        <pt x="1030" y="262" on="0"/>
        <pt x="754" y="-22" on="0"/>
      </contour>
      <contour>
        <pt x="481" y="1012" on="1"/>
        <pt x="546" y="1074" on="0"/>
        <pt x="593" y="1172" on="0"/>
        <pt x="593" y="1230" on="1"/>
        <pt x="593" y="1276" on="0"/>
        <pt x="532" y="1324" on="0"/>
        <pt x="484" y="1324" on="1"/>
        <pt x="435" y="1324" on="0"/>
        <pt x="367" y="1265" on="0"/>
        <pt x="367" y="1221" on="1"/>
        <pt x="367" y="1126" on="0"/>
      </contour>
    </TTGlyph>
    <TTGlyph name="glyph00026" xMin="0" yMin="-22" xMax="939" yMax="1484">
      <contour>
        <pt x="805" y="1219" on="1"/>
        <pt x="691" y="1324" on="0"/>
        <pt x="563" y="1324" on="1"/>
        <pt x="514" y="1324" on="0"/>
        <pt x="429" y="1281" on="0"/>
        <pt x="378" y="1202" on="0"/>
        <pt x="378" y="1144" on="1"/>
        <pt x="378" y="1086" on="0"/>
        <pt x="429" y="989" on="0"/>
        <pt x="517" y="900" on="0"/>
        <pt x="659" y="798" on="1"/>
        <pt x="774" y="715" on="0"/>
        <pt x="882" y="598" on="0"/>
        <pt x="939" y="470" on="0"/>
        <pt x="939" y="394" on="1"/>
        <pt x="939" y="198" on="0"/>
        <pt x="693" y="-22" on="0"/>
        <pt x="474" y="-22" on="1"/>
        <pt x="186" y="-22" on="0"/>
        <pt x="0" y="193" on="1"/>
        <pt x="126" y="320" on="1"/>
        <pt x="211" y="223" on="0"/>
        <pt x="381" y="138" on="0"/>
        <pt x="472" y="138" on="1"/>
        <pt x="604" y="138" on="0"/>
        <pt x="745" y="258" on="0"/>
        <pt x="745" y="378" on="1"/>
        <pt x="741" y="437" on="0"/>
        <pt x="689" y="531" on="0"/>
        <pt x="609" y="611" on="0"/>
        <pt x="509" y="683" on="0"/>
        <pt x="406" y="756" on="0"/>
        <pt x="307" y="836" on="0"/>
        <pt x="231" y="933" on="0"/>
        <pt x="184" y="1052" on="0"/>
        <pt x="184" y="1128" on="1"/>
        <pt x="184" y="1293" on="0"/>
        <pt x="386" y="1484" on="0"/>
        <pt x="555" y="1484" on="1"/>
        <pt x="771" y="1484" on="0"/>
        <pt x="902" y="1359" on="1"/>
      </contour>
    </TTGlyph>
    <TTGlyph name="glyph00027" xMin="80" yMin="-22" xMax="758" yMax="1462">
      <contour>
        <pt x="738" y="620" on="1"/>
        <pt x="758" y="508" on="0"/>
        <pt x="758" y="437" on="1"/>
        <pt x="758" y="216" on="0"/>
        <pt x="563" y="-22" on="0"/>
        <pt x="383" y="-22" on="1"/>
        <pt x="244" y="-22" on="0"/>
        <pt x="80" y="149" on="0"/>
        <pt x="80" y="296" on="1"/>
        <pt x="80" y="339" on="0"/>
        <pt x="86" y="387" on="1"/>
        <pt x="202" y="1462" on="1"/>
        <pt x="386" y="1462" on="1"/>
        <pt x="286" y="521" on="1"/>
        <pt x="270" y="370" on="0"/>
        <pt x="270" y="322" on="1"/>
        <pt x="270" y="226" on="0"/>
        <pt x="327" y="138" on="0"/>
        <pt x="389" y="138" on="1"/>
        <pt x="479" y="138" on="0"/>
        <pt x="578" y="281" on="0"/>
        <pt x="578" y="421" on="1"/>
        <pt x="578" y="491" on="0"/>
        <pt x="563" y="577" on="1"/>
      </contour>
    </TTGlyph>
    <TTGlyph name="glyph00028" xMin="80" yMin="-46" xMax="913" yMax="1484">
      <contour>
        <pt x="913" y="1053" on="1"/>
        <pt x="913" y="857" on="0"/>
        <pt x="815" y="458" on="0"/>
        <pt x="644" y="162" on="0"/>
        <pt x="404" y="-21" on="0"/>
        <pt x="255" y="-46" on="1"/>
        <pt x="226" y="107" on="1"/>
        <pt x="378" y="146" on="0"/>
        <pt x="599" y="391" on="0"/>
        <pt x="659" y="596" on="1"/>
        <pt x="575" y="559" on="0"/>
        <pt x="473" y="559" on="1"/>
        <pt x="293" y="559" on="0"/>
        <pt x="80" y="792" on="0"/>
        <pt x="80" y="991" on="1"/>
        <pt x="80" y="1221" on="0"/>
        <pt x="312" y="1484" on="0"/>
        <pt x="518" y="1484" on="1"/>
        <pt x="700" y="1484" on="0"/>
        <pt x="913" y="1256" on="0"/>
      </contour>
      <contour>
        <pt x="719" y="1052" on="1"/>
        <pt x="719" y="1183" on="0"/>
        <pt x="609" y="1323" on="0"/>
        <pt x="508" y="1323" on="1"/>
        <pt x="274" y="1323" on="0"/>
        <pt x="274" y="990" on="1"/>
        <pt x="274" y="851" on="0"/>
        <pt x="378" y="719" on="0"/>
        <pt x="483" y="719" on="1"/>
        <pt x="601" y="719" on="0"/>
        <pt x="719" y="890" on="0"/>
      </contour>
    </TTGlyph>
    <TTGlyph name="glyph00029" xMin="0" yMin="-22" xMax="1545" yMax="1484">
      <contour>
        <pt x="1525" y="620" on="1"/>
        <pt x="1545" y="508" on="0"/>
        <pt x="1545" y="417" on="1"/>
        <pt x="1545" y="203" on="0"/>
        <pt x="1353" y="-22" on="0"/>
        <pt x="1170" y="-22" on="1"/>
        <pt x="1013" y="-22" on="0"/>
        <pt x="865" y="115" on="0"/>
        <pt x="865" y="248" on="1"/>
        <pt x="865" y="312" on="0"/>
        <pt x="880" y="421" on="1"/>
        <pt x="895" y="529" on="0"/>
        <pt x="895" y="599" on="1"/>
        <pt x="895" y="705" on="0"/>
        <pt x="825" y="790" on="0"/>
        <pt x="738" y="790" on="1"/>
        <pt x="624" y="790" on="0"/>
        <pt x="557" y="723" on="1"/>
        <pt x="481" y="0" on="1"/>
        <pt x="297" y="0" on="1"/>
        <pt x="412" y="1106" on="1"/>
        <pt x="412" y="1133" on="1"/>
        <pt x="412" y="1234" on="0"/>
        <pt x="335" y="1324" on="0"/>
        <pt x="247" y="1324" on="1"/>
        <pt x="210" y="1324" on="0"/>
        <pt x="129" y="1295" on="0"/>
        <pt x="100" y="1267" on="1"/>
        <pt x="0" y="1400" on="1"/>
        <pt x="99" y="1484" on="0"/>
        <pt x="283" y="1484" on="1"/>
        <pt x="443" y="1484" on="0"/>
        <pt x="601" y="1322" on="0"/>
        <pt x="601" y="1153" on="1"/>
        <pt x="599" y="1115" on="1"/>
        <pt x="576" y="904" on="1"/>
        <pt x="668" y="950" on="0"/>
        <pt x="780" y="950" on="1"/>
        <pt x="935" y="950" on="0"/>
        <pt x="1081" y="795" on="0"/>
        <pt x="1081" y="619" on="1"/>
        <pt x="1081" y="555" on="0"/>
        <pt x="1068" y="435" on="1"/>
        <pt x="1055" y="315" on="0"/>
        <pt x="1055" y="249" on="1"/>
        <pt x="1055" y="195" on="0"/>
        <pt x="1119" y="138" on="0"/>
        <pt x="1176" y="138" on="1"/>
        <pt x="1272" y="138" on="0"/>
        <pt x="1365" y="253" on="0"/>
        <pt x="1365" y="389" on="1"/>
        <pt x="1365" y="447" on="0"/>
        <pt x="1350" y="577" on="1"/>
      </contour>
    </TTGlyph>
    <TTGlyph name="glyph00030" xMin="0" yMin="0" xMax="919" yMax="1484">
      <contour>
        <pt x="318" y="1400" on="1"/>
        <pt x="417" y="1484" on="0"/>
        <pt x="601" y="1484" on="1"/>
        <pt x="761" y="1484" on="0"/>
        <pt x="919" y="1322" on="0"/>
        <pt x="919" y="1153" on="1"/>
        <pt x="919" y="1134" on="0"/>
        <pt x="908" y="1021" on="0"/>
        <pt x="799" y="0" on="1"/>
        <pt x="615" y="0" on="1"/>
        <pt x="667" y="494" on="1"/>
        <pt x="618" y="590" on="0"/>
        <pt x="482" y="590" on="1"/>
        <pt x="371" y="590" on="0"/>
        <pt x="229" y="423" on="0"/>
        <pt x="215" y="283" on="1"/>
        <pt x="184" y="0" on="1"/>
        <pt x="0" y="0" on="1"/>
        <pt x="30" y="292" on="1"/>
        <pt x="76" y="750" on="0"/>
        <pt x="473" y="750" on="1"/>
        <pt x="600" y="750" on="0"/>
        <pt x="687" y="692" on="1"/>
        <pt x="721" y="1013" on="1"/>
        <pt x="730" y="1144" on="1"/>
        <pt x="730" y="1241" on="0"/>
        <pt x="656" y="1324" on="0"/>
        <pt x="565" y="1324" on="1"/>
        <pt x="528" y="1324" on="0"/>
        <pt x="447" y="1295" on="0"/>
        <pt x="418" y="1267" on="1"/>
      </contour>
    </TTGlyph>
    <TTGlyph name="glyph00031" xMin="100" yMin="0" xMax="987" yMax="1484">
      <contour>
        <pt x="923" y="847" on="1"/>
        <pt x="834" y="0" on="1"/>
        <pt x="650" y="0" on="1"/>
        <pt x="701" y="483" on="1"/>
        <pt x="619" y="445" on="0"/>
        <pt x="518" y="445" on="1"/>
        <pt x="323" y="445" on="0"/>
        <pt x="100" y="694" on="0"/>
        <pt x="100" y="914" on="1"/>
        <pt x="100" y="1188" on="0"/>
        <pt x="344" y="1484" on="0"/>
        <pt x="569" y="1484" on="1"/>
        <pt x="753" y="1484" on="0"/>
        <pt x="956" y="1320" on="0"/>
        <pt x="987" y="1148" on="1"/>
        <pt x="806" y="1137" on="1"/>
        <pt x="788" y="1232" on="0"/>
        <pt x="675" y="1324" on="0"/>
        <pt x="571" y="1324" on="1"/>
        <pt x="439" y="1324" on="0"/>
        <pt x="294" y="1107" on="0"/>
        <pt x="294" y="921" on="1"/>
        <pt x="294" y="769" on="0"/>
        <pt x="417" y="605" on="0"/>
        <pt x="530" y="605" on="1"/>
        <pt x="582" y="605" on="0"/>
        <pt x="695" y="649" on="0"/>
        <pt x="722" y="683" on="1"/>
        <pt x="739" y="847" on="1"/>
      </contour>
    </TTGlyph>
    <TTGlyph name="glyph00032" xMin="80" yMin="-22" xMax="1371" yMax="1462">
      <contour>
        <pt x="999" y="1462" on="1"/>
        <pt x="900" y="516" on="1"/>
        <pt x="886" y="393" on="0"/>
        <pt x="886" y="320" on="1"/>
        <pt x="886" y="223" on="0"/>
        <pt x="940" y="138" on="0"/>
        <pt x="1002" y="138" on="1"/>
        <pt x="1092" y="138" on="0"/>
        <pt x="1191" y="281" on="0"/>
        <pt x="1191" y="421" on="1"/>
        <pt x="1191" y="483" on="0"/>
        <pt x="1176" y="577" on="1"/>
        <pt x="1351" y="620" on="1"/>
        <pt x="1371" y="508" on="0"/>
        <pt x="1371" y="437" on="1"/>
        <pt x="1371" y="216" on="0"/>
        <pt x="1176" y="-22" on="0"/>
        <pt x="996" y="-22" on="1"/>
        <pt x="837" y="-22" on="0"/>
        <pt x="759" y="85" on="1"/>
        <pt x="652" y="-22" on="0"/>
        <pt x="433" y="-22" on="1"/>
        <pt x="263" y="-22" on="0"/>
        <pt x="80" y="152" on="0"/>
        <pt x="80" y="324" on="1"/>
        <pt x="80" y="371" on="0"/>
        <pt x="93" y="524" on="0"/>
        <pt x="192" y="1462" on="1"/>
        <pt x="377" y="1462" on="1"/>
        <pt x="278" y="514" on="1"/>
        <pt x="270" y="438" on="0"/>
        <pt x="270" y="377" on="1"/>
        <pt x="270" y="244" on="0"/>
        <pt x="357" y="138" on="0"/>
        <pt x="453" y="138" on="1"/>
        <pt x="535" y="138" on="0"/>
        <pt x="640" y="213" on="0"/>
        <pt x="700" y="361" on="0"/>
        <pt x="717" y="516" on="1"/>
        <pt x="816" y="1462" on="1"/>
      </contour>
    </TTGlyph>
    <TTGlyph name="glyph00033" xMin="-20" yMin="-22" xMax="1964" yMax="1484">
      <contour>
        <pt x="1944" y="620" on="1"/>
        <pt x="1964" y="527" on="0"/>
        <pt x="1964" y="437" on="1"/>
        <pt x="1964" y="216" on="0"/>
        <pt x="1769" y="-22" on="0"/>
        <pt x="1589" y="-22" on="1"/>
        <pt x="1280" y="-22" on="0"/>
        <pt x="1280" y="286" on="1"/>
        <pt x="1280" y="338" on="0"/>
        <pt x="1295" y="448" on="1"/>
        <pt x="1309" y="557" on="0"/>
        <pt x="1309" y="613" on="1"/>
        <pt x="1309" y="678" on="0"/>
        <pt x="1246" y="750" on="0"/>
        <pt x="1184" y="750" on="1"/>
        <pt x="1027" y="750" on="0"/>
        <pt x="1010" y="582" on="1"/>
        <pt x="948" y="0" on="1"/>
        <pt x="764" y="0" on="1"/>
        <pt x="820" y="535" on="1"/>
        <pt x="824" y="602" on="1"/>
        <pt x="824" y="678" on="0"/>
        <pt x="759" y="750" on="0"/>
        <pt x="692" y="750" on="1"/>
        <pt x="612" y="750" on="0"/>
        <pt x="537" y="663" on="0"/>
        <pt x="528" y="582" on="1"/>
        <pt x="464" y="0" on="1"/>
        <pt x="280" y="0" on="1"/>
        <pt x="392" y="1121" on="0"/>
        <pt x="392" y="1134" on="1"/>
        <pt x="392" y="1236" on="0"/>
        <pt x="314" y="1324" on="0"/>
        <pt x="227" y="1324" on="1"/>
        <pt x="190" y="1324" on="0"/>
        <pt x="109" y="1295" on="0"/>
        <pt x="80" y="1267" on="1"/>
        <pt x="-20" y="1400" on="1"/>
        <pt x="79" y="1484" on="0"/>
        <pt x="263" y="1484" on="1"/>
        <pt x="426" y="1484" on="0"/>
        <pt x="581" y="1321" on="0"/>
        <pt x="581" y="1154" on="1"/>
        <pt x="581" y="1130" on="0"/>
        <pt x="554" y="874" on="1"/>
        <pt x="628" y="910" on="0"/>
        <pt x="721" y="910" on="1"/>
        <pt x="871" y="910" on="0"/>
        <pt x="952" y="814" on="1"/>
        <pt x="1054" y="910" on="0"/>
        <pt x="1203" y="910" on="1"/>
        <pt x="1347" y="910" on="0"/>
        <pt x="1503" y="758" on="0"/>
        <pt x="1503" y="618" on="1"/>
        <pt x="1503" y="585" on="0"/>
        <pt x="1488" y="463" on="1"/>
        <pt x="1472" y="340" on="0"/>
        <pt x="1472" y="300" on="1"/>
        <pt x="1472" y="138" on="0"/>
        <pt x="1595" y="138" on="1"/>
        <pt x="1685" y="138" on="0"/>
        <pt x="1784" y="281" on="0"/>
        <pt x="1784" y="421" on="1"/>
        <pt x="1784" y="491" on="0"/>
        <pt x="1769" y="577" on="1"/>
      </contour>
    </TTGlyph>
    <TTGlyph name="glyph00034" xMin="100" yMin="-22" xMax="1157" yMax="1484">
      <contour>
        <pt x="1157" y="838" on="1"/>
        <pt x="1157" y="421" on="0"/>
        <pt x="845" y="-22" on="0"/>
        <pt x="555" y="-22" on="1"/>
        <pt x="333" y="-22" on="0"/>
        <pt x="100" y="321" on="0"/>
        <pt x="100" y="647" on="1"/>
        <pt x="100" y="1035" on="0"/>
        <pt x="411" y="1484" on="0"/>
        <pt x="685" y="1484" on="1"/>
        <pt x="916" y="1484" on="0"/>
        <pt x="1157" y="1155" on="0"/>
      </contour>
      <contour>
        <pt x="963" y="809" on="1"/>
        <pt x="963" y="1077" on="0"/>
        <pt x="822" y="1324" on="0"/>
        <pt x="680" y="1324" on="1"/>
        <pt x="501" y="1324" on="0"/>
        <pt x="294" y="945" on="0"/>
        <pt x="294" y="631" on="1"/>
        <pt x="294" y="388" on="0"/>
        <pt x="437" y="138" on="0"/>
        <pt x="577" y="138" on="1"/>
        <pt x="690" y="138" on="0"/>
        <pt x="868" y="305" on="0"/>
        <pt x="963" y="608" on="0"/>
      </contour>
    </TTGlyph>
    <TTGlyph name="glyph00035" xMin="0" yMin="-22" xMax="764" yMax="1484">
      <contour>
        <pt x="2" y="160" on="1"/>
        <pt x="85" y="138" on="0"/>
        <pt x="218" y="138" on="1"/>
        <pt x="336" y="138" on="0"/>
        <pt x="480" y="197" on="0"/>
        <pt x="547" y="310" on="0"/>
        <pt x="547" y="413" on="1"/>
        <pt x="547" y="486" on="0"/>
        <pt x="478" y="636" on="0"/>
        <pt x="401" y="735" on="1"/>
        <pt x="326" y="831" on="0"/>
        <pt x="255" y="996" on="0"/>
        <pt x="255" y="1079" on="1"/>
        <pt x="255" y="1202" on="0"/>
        <pt x="353" y="1387" on="0"/>
        <pt x="532" y="1484" on="0"/>
        <pt x="645" y="1484" on="1"/>
        <pt x="691" y="1484" on="0"/>
        <pt x="764" y="1479" on="1"/>
        <pt x="764" y="1320" on="1"/>
        <pt x="720" y="1324" on="0"/>
        <pt x="662" y="1324" on="1"/>
        <pt x="571" y="1324" on="0"/>
        <pt x="449" y="1208" on="0"/>
        <pt x="449" y="1116" on="1"/>
        <pt x="449" y="1041" on="0"/>
        <pt x="515" y="889" on="0"/>
        <pt x="595" y="782" on="1"/>
        <pt x="670" y="681" on="0"/>
        <pt x="741" y="510" on="0"/>
        <pt x="741" y="423" on="1"/>
        <pt x="741" y="-22" on="0"/>
        <pt x="217" y="-22" on="1"/>
        <pt x="97" y="-22" on="0"/>
        <pt x="0" y="-3" on="1"/>
      </contour>
    </TTGlyph>
    <TTGlyph name="glyph00036" xMin="120" yMin="-22" xMax="1148" yMax="1484">
      <contour>
        <pt x="1148" y="640" on="1"/>
        <pt x="1138" y="542" on="1"/>
        <pt x="1110" y="267" on="0"/>
        <pt x="830" y="-22" on="0"/>
        <pt x="581" y="-22" on="1"/>
        <pt x="451" y="-22" on="0"/>
        <pt x="255" y="93" on="0"/>
        <pt x="146" y="293" on="0"/>
        <pt x="146" y="415" on="1"/>
        <pt x="146" y="520" on="0"/>
        <pt x="213" y="712" on="0"/>
        <pt x="270" y="781" on="1"/>
        <pt x="120" y="914" on="0"/>
        <pt x="120" y="1115" on="1"/>
        <pt x="120" y="1230" on="0"/>
        <pt x="224" y="1401" on="0"/>
        <pt x="413" y="1484" on="0"/>
        <pt x="545" y="1484" on="1"/>
        <pt x="786" y="1484" on="0"/>
        <pt x="905" y="1307" on="1"/>
        <pt x="755" y="1196" on="1"/>
        <pt x="685" y="1324" on="0"/>
        <pt x="540" y="1324" on="1"/>
        <pt x="436" y="1324" on="0"/>
        <pt x="314" y="1214" on="0"/>
        <pt x="314" y="1122" on="1"/>
        <pt x="314" y="1009" on="0"/>
        <pt x="408" y="915" on="1"/>
        <pt x="488" y="972" on="0"/>
        <pt x="581" y="1006" on="1"/>
        <pt x="629" y="854" on="1"/>
        <pt x="498" y="810" on="0"/>
        <pt x="340" y="576" on="0"/>
        <pt x="340" y="430" on="1"/>
        <pt x="340" y="292" on="0"/>
        <pt x="485" y="138" on="0"/>
        <pt x="616" y="138" on="1"/>
        <pt x="754" y="138" on="0"/>
        <pt x="935" y="366" on="0"/>
        <pt x="956" y="569" on="1"/>
        <pt x="963" y="640" on="1"/>
      </contour>
    </TTGlyph>
    <TTGlyph name="glyph00037" xMin="80" yMin="-22" xMax="1249" yMax="1496">
      <contour>
        <pt x="560" y="1302" on="1"/>
        <pt x="471" y="1302" on="1"/>
        <pt x="430" y="913" on="1"/>
        <pt x="512" y="950" on="0"/>
        <pt x="614" y="950" on="1"/>
        <pt x="784" y="950" on="0"/>
        <pt x="969" y="778" on="0"/>
        <pt x="969" y="619" on="1"/>
        <pt x="969" y="573" on="0"/>
        <pt x="944" y="348" on="1"/>
        <pt x="941" y="291" on="1"/>
        <pt x="941" y="210" on="0"/>
        <pt x="1010" y="138" on="0"/>
        <pt x="1080" y="138" on="1"/>
        <pt x="1155" y="138" on="0"/>
        <pt x="1208" y="176" on="1"/>
        <pt x="1249" y="15" on="1"/>
        <pt x="1163" y="-22" on="0"/>
        <pt x="1044" y="-22" on="1"/>
        <pt x="906" y="-22" on="0"/>
        <pt x="756" y="131" on="0"/>
        <pt x="756" y="279" on="1"/>
        <pt x="760" y="343" on="1"/>
        <pt x="783" y="560" on="0"/>
        <pt x="783" y="599" on="1"/>
        <pt x="783" y="691" on="0"/>
        <pt x="670" y="790" on="0"/>
        <pt x="572" y="790" on="1"/>
        <pt x="475" y="790" on="0"/>
        <pt x="412" y="742" on="1"/>
        <pt x="334" y="0" on="1"/>
        <pt x="149" y="0" on="1"/>
        <pt x="286" y="1309" on="1"/>
        <pt x="165" y="1316" on="0"/>
        <pt x="80" y="1334" on="1"/>
        <pt x="103" y="1496" on="1"/>
        <pt x="159" y="1482" on="0"/>
        <pt x="362" y="1462" on="0"/>
        <pt x="473" y="1462" on="1"/>
        <pt x="558" y="1462" on="1"/>
        <pt x="780" y="1462" on="0"/>
        <pt x="921" y="1494" on="1"/>
        <pt x="899" y="1325" on="1"/>
        <pt x="745" y="1302" on="0"/>
      </contour>
    </TTGlyph>
    <TTGlyph name="glyph00038" xMin="120" yMin="-22" xMax="1046" yMax="1462">
      <contour>
        <pt x="443" y="1462" on="1"/>
        <pt x="427" y="1308" on="1"/>
        <pt x="427" y="1285" on="1"/>
        <pt x="427" y="1193" on="0"/>
        <pt x="507" y="1020" on="0"/>
        <pt x="596" y="923" on="1"/>
        <pt x="712" y="1025" on="0"/>
        <pt x="835" y="1219" on="0"/>
        <pt x="848" y="1330" on="1"/>
        <pt x="862" y="1462" on="1"/>
        <pt x="1046" y="1462" on="1"/>
        <pt x="1034" y="1344" on="1"/>
        <pt x="1020" y="1205" on="0"/>
        <pt x="870" y="948" on="0"/>
        <pt x="708" y="809" on="1"/>
        <pt x="823" y="694" on="0"/>
        <pt x="907" y="578" on="0"/>
        <pt x="953" y="461" on="0"/>
        <pt x="953" y="396" on="1"/>
        <pt x="953" y="269" on="0"/>
        <pt x="836" y="80" on="0"/>
        <pt x="627" y="-22" on="0"/>
        <pt x="496" y="-22" on="1"/>
        <pt x="321" y="-22" on="0"/>
        <pt x="120" y="151" on="0"/>
        <pt x="120" y="306" on="1"/>
        <pt x="120" y="393" on="0"/>
        <pt x="186" y="543" on="0"/>
        <pt x="312" y="688" on="0"/>
        <pt x="461" y="809" on="1"/>
        <pt x="341" y="935" on="0"/>
        <pt x="243" y="1156" on="0"/>
        <pt x="243" y="1275" on="1"/>
        <pt x="243" y="1305" on="0"/>
        <pt x="259" y="1462" on="1"/>
      </contour>
      <contour>
        <pt x="572" y="698" on="1"/>
        <pt x="451" y="599" on="0"/>
        <pt x="361" y="496" on="0"/>
        <pt x="314" y="392" on="0"/>
        <pt x="314" y="333" on="1"/>
        <pt x="314" y="242" on="0"/>
        <pt x="423" y="138" on="0"/>
        <pt x="515" y="138" on="1"/>
        <pt x="582" y="138" on="0"/>
        <pt x="693" y="199" on="0"/>
        <pt x="759" y="312" on="0"/>
        <pt x="759" y="395" on="1"/>
        <pt x="759" y="457" on="0"/>
        <pt x="684" y="589" on="0"/>
      </contour>
    </TTGlyph>
    <TTGlyph name="glyph00039" xMin="120" yMin="-22" xMax="866" yMax="1485">
      <contour>
        <pt x="846" y="620" on="1"/>
        <pt x="866" y="508" on="0"/>
        <pt x="866" y="437" on="1"/>
        <pt x="866" y="210" on="0"/>
        <pt x="669" y="-22" on="0"/>
        <pt x="482" y="-22" on="1"/>
        <pt x="297" y="-22" on="0"/>
        <pt x="120" y="130" on="0"/>
        <pt x="120" y="296" on="1"/>
        <pt x="120" y="350" on="0"/>
        <pt x="146" y="453" on="0"/>
        <pt x="177" y="525" on="1"/>
        <pt x="234" y="658" on="0"/>
        <pt x="234" y="825" on="1"/>
        <pt x="234" y="906" on="0"/>
        <pt x="205" y="1034" on="1"/>
        <pt x="175" y="1162" on="0"/>
        <pt x="175" y="1223" on="1"/>
        <pt x="175" y="1342" on="0"/>
        <pt x="342" y="1485" on="0"/>
        <pt x="482" y="1485" on="1"/>
        <pt x="612" y="1485" on="0"/>
        <pt x="754" y="1352" on="0"/>
        <pt x="754" y="1233" on="1"/>
        <pt x="754" y="1147" on="0"/>
        <pt x="667" y="1004" on="0"/>
        <pt x="515" y="932" on="0"/>
        <pt x="407" y="929" on="1"/>
        <pt x="420" y="868" on="0"/>
        <pt x="420" y="827" on="1"/>
        <pt x="420" y="677" on="0"/>
        <pt x="365" y="532" on="1"/>
        <pt x="331" y="441" on="0"/>
        <pt x="310" y="347" on="0"/>
        <pt x="310" y="300" on="1"/>
        <pt x="310" y="217" on="0"/>
        <pt x="391" y="138" on="0"/>
        <pt x="488" y="138" on="1"/>
        <pt x="583" y="138" on="0"/>
        <pt x="686" y="281" on="0"/>
        <pt x="686" y="421" on="1"/>
        <pt x="686" y="480" on="0"/>
        <pt x="671" y="577" on="1"/>
      </contour>
      <contour>
        <pt x="380" y="1088" on="1"/>
        <pt x="485" y="1088" on="0"/>
        <pt x="570" y="1160" on="0"/>
        <pt x="570" y="1230" on="1"/>
        <pt x="570" y="1282" on="0"/>
        <pt x="515" y="1325" on="0"/>
        <pt x="476" y="1325" on="1"/>
        <pt x="427" y="1325" on="0"/>
        <pt x="365" y="1266" on="0"/>
        <pt x="365" y="1221" on="1"/>
        <pt x="365" y="1184" on="0"/>
      </contour>
    </TTGlyph>
    <TTGlyph name="glyph00040" xMin="100" yMin="-50" xMax="808" yMax="1462">
      <contour>
        <pt x="205" y="-50" on="1"/>
        <pt x="176" y="110" on="1"/>
        <pt x="305" y="133" on="0"/>
        <pt x="440" y="221" on="0"/>
        <pt x="513" y="383" on="0"/>
        <pt x="528" y="525" on="1"/>
        <pt x="558" y="815" on="1"/>
        <pt x="484" y="777" on="0"/>
        <pt x="392" y="777" on="1"/>
        <pt x="256" y="777" on="0"/>
        <pt x="100" y="913" on="0"/>
        <pt x="100" y="1051" on="1"/>
        <pt x="103" y="1105" on="1"/>
        <pt x="140" y="1462" on="1"/>
        <pt x="324" y="1462" on="1"/>
        <pt x="293" y="1152" on="1"/>
        <pt x="289" y="1085" on="1"/>
        <pt x="289" y="1009" on="0"/>
        <pt x="354" y="937" on="0"/>
        <pt x="421" y="937" on="1"/>
        <pt x="501" y="937" on="0"/>
        <pt x="576" y="1024" on="0"/>
        <pt x="585" y="1105" on="1"/>
        <pt x="624" y="1462" on="1"/>
        <pt x="808" y="1462" on="1"/>
        <pt x="712" y="513" on="1"/>
        <pt x="693" y="325" on="0"/>
        <pt x="577" y="103" on="0"/>
        <pt x="366" y="-29" on="0"/>
      </contour>
    </TTGlyph>
    <TTGlyph name="glyph00041" xMin="20" yMin="-22" xMax="920" yMax="1484">
      <contour>
        <pt x="225" y="1466" on="1"/>
        <pt x="311" y="1484" on="0"/>
        <pt x="422" y="1484" on="1"/>
        <pt x="661" y="1484" on="0"/>
        <pt x="920" y="1105" on="0"/>
        <pt x="920" y="782" on="1"/>
        <pt x="920" y="530" on="0"/>
        <pt x="786" y="159" on="0"/>
        <pt x="537" y="-22" on="0"/>
        <pt x="363" y="-22" on="1"/>
        <pt x="134" y="-22" on="0"/>
        <pt x="20" y="96" on="1"/>
        <pt x="123" y="224" on="1"/>
        <pt x="205" y="138" on="0"/>
        <pt x="382" y="138" on="1"/>
        <pt x="486" y="138" on="0"/>
        <pt x="640" y="286" on="0"/>
        <pt x="726" y="573" on="0"/>
        <pt x="726" y="777" on="1"/>
        <pt x="726" y="1038" on="0"/>
        <pt x="561" y="1324" on="0"/>
        <pt x="403" y="1324" on="1"/>
        <pt x="327" y="1324" on="0"/>
        <pt x="259" y="1315" on="1"/>
      </contour>
    </TTGlyph>
    <TTGlyph name="glyph00042" xMin="110" yMin="-22" xMax="971" yMax="1484">
      <contour>
        <pt x="899" y="92" on="1"/>
        <pt x="761" y="-22" on="0"/>
        <pt x="538" y="-22" on="1"/>
        <pt x="325" y="-22" on="0"/>
        <pt x="110" y="239" on="0"/>
        <pt x="110" y="510" on="1"/>
        <pt x="110" y="757" on="0"/>
        <pt x="286" y="1226" on="0"/>
        <pt x="577" y="1484" on="0"/>
        <pt x="755" y="1484" on="1"/>
        <pt x="890" y="1484" on="0"/>
        <pt x="971" y="1466" on="1"/>
        <pt x="907" y="1315" on="1"/>
        <pt x="865" y="1324" on="0"/>
        <pt x="737" y="1324" on="1"/>
        <pt x="618" y="1324" on="0"/>
        <pt x="423" y="1113" on="0"/>
        <pt x="304" y="708" on="0"/>
        <pt x="304" y="509" on="1"/>
        <pt x="304" y="326" on="0"/>
        <pt x="430" y="138" on="0"/>
        <pt x="550" y="138" on="1"/>
        <pt x="724" y="138" on="0"/>
        <pt x="825" y="227" on="1"/>
      </contour>
    </TTGlyph>
    <TTGlyph name="glyph00043" xMin="120" yMin="-22" xMax="1115" yMax="1462">
      <contour>
        <pt x="1115" y="1462" on="1"/>
        <pt x="1016" y="516" on="1"/>
        <pt x="994" y="309" on="0"/>
        <pt x="880" y="89" on="0"/>
        <pt x="672" y="-22" on="0"/>
        <pt x="509" y="-22" on="1"/>
        <pt x="308" y="-22" on="0"/>
        <pt x="120" y="161" on="0"/>
        <pt x="120" y="369" on="1"/>
        <pt x="120" y="439" on="0"/>
        <pt x="129" y="520" on="1"/>
        <pt x="228" y="1462" on="1"/>
        <pt x="413" y="1462" on="1"/>
        <pt x="314" y="514" on="1"/>
        <pt x="307" y="458" on="0"/>
        <pt x="307" y="394" on="1"/>
        <pt x="307" y="256" on="0"/>
        <pt x="417" y="137" on="0"/>
        <pt x="537" y="137" on="1"/>
        <pt x="631" y="137" on="0"/>
        <pt x="749" y="210" on="0"/>
        <pt x="815" y="356" on="0"/>
        <pt x="833" y="516" on="1"/>
        <pt x="932" y="1462" on="1"/>
      </contour>
    </TTGlyph>
</ttFont>
